<svg width="462" height="318" viewBox="0 0 462 318" fill="none" xmlns="http://www.w3.org/2000/svg">
<rect width="462" height="317" rx="5" fill="#F1EBEB"/>
<ellipse cx="234.277" cy="156.08" rx="163.83" ry="141.561" fill="url(#paint0_linear_2_6)"/>
<path d="M206.278 136.134C204.828 136.134 203.537 135.771 202.406 135.046C201.297 134.299 200.412 133.168 199.75 131.654C199.11 130.139 198.79 128.24 198.79 125.958C198.79 122.31 199.377 119.686 200.55 118.086C201.745 116.464 203.59 115.654 206.086 115.654C207.729 115.654 209.35 116.038 210.95 116.806V120.614H209.222V117.894C208.348 117.51 207.366 117.318 206.278 117.318C205.02 117.318 203.996 117.563 203.206 118.054C202.417 118.523 201.809 119.387 201.382 120.646C200.977 121.904 200.774 123.686 200.774 125.99C200.774 128.87 201.286 131.003 202.31 132.39C203.334 133.776 204.7 134.47 206.406 134.47C207.857 134.47 209.297 134.128 210.726 133.446L211.366 134.982C209.745 135.75 208.049 136.134 206.278 136.134ZM214.954 114.758H216.97V121.734C218.613 120.816 220.17 120.358 221.642 120.358C223.114 120.358 224.202 120.784 224.906 121.638C225.61 122.47 225.962 123.792 225.962 125.606V135.974H223.978V125.51C223.978 124.272 223.797 123.376 223.434 122.822C223.072 122.267 222.432 121.99 221.514 121.99C220.298 121.99 218.784 122.48 216.97 123.462V135.974H214.954V114.758ZM234.622 136.134C233.128 136.134 231.923 135.76 231.006 135.014C230.11 134.267 229.662 133.19 229.662 131.782C229.662 130.416 230.259 129.296 231.454 128.422C232.648 127.547 234.6 127.11 237.31 127.11H238.654V126.63C238.654 124.923 238.355 123.728 237.758 123.046C237.182 122.342 236.36 121.99 235.294 121.99C234.718 121.99 234.142 122.054 233.566 122.182C232.99 122.288 232.115 122.491 230.942 122.79L230.558 121.254C232.35 120.656 233.95 120.358 235.358 120.358C236.979 120.358 238.259 120.838 239.198 121.798C240.158 122.736 240.638 124.251 240.638 126.342V135.974H239.198L238.878 134.95C238.494 135.248 237.886 135.526 237.054 135.782C236.222 136.016 235.411 136.134 234.622 136.134ZM234.91 134.534C235.571 134.534 236.254 134.438 236.958 134.246C237.662 134.032 238.227 133.787 238.654 133.51V128.582H237.79C236.019 128.582 234.536 128.784 233.342 129.19C232.147 129.595 231.55 130.406 231.55 131.622C231.55 132.582 231.838 133.307 232.414 133.798C232.99 134.288 233.822 134.534 234.91 134.534ZM245.113 120.582H247.033L247.097 121.926C247.694 121.52 248.462 121.168 249.401 120.87C250.361 120.571 251.246 120.4 252.057 120.358V122.022C251.139 122.022 250.211 122.16 249.273 122.438C248.355 122.715 247.641 123.035 247.129 123.398V135.974H245.113V120.582ZM260.388 136.134C259.3 136.112 258.458 135.878 257.86 135.43C257.263 134.982 256.847 134.32 256.612 133.446C256.399 132.571 256.292 131.398 256.292 129.926V121.99H253.892V120.582H256.356L256.74 116.166H258.308V120.582H263.108V121.99H258.308V129.958C258.308 131.28 258.404 132.262 258.596 132.902C258.81 133.542 259.087 133.968 259.428 134.182C259.791 134.374 260.292 134.47 260.932 134.47C262.084 134.47 262.863 134.438 263.268 134.374L263.364 135.974C262.532 136.08 261.54 136.134 260.388 136.134ZM271.47 136.134C270.638 136.134 269.763 136.027 268.846 135.814C267.95 135.579 267.107 135.27 266.318 134.886L266.958 133.35C267.491 133.648 268.163 133.915 268.974 134.15C269.806 134.363 270.606 134.47 271.374 134.47C272.334 134.47 273.102 134.267 273.678 133.862C274.275 133.435 274.574 132.763 274.574 131.846C274.574 131.12 274.403 130.576 274.062 130.214C273.742 129.851 273.23 129.552 272.526 129.318L270.19 128.614C269.337 128.336 268.654 128.048 268.142 127.75C267.63 127.451 267.235 127.046 266.958 126.534C266.681 126 266.542 125.318 266.542 124.486C266.542 123.099 267.022 122.064 267.982 121.382C268.942 120.699 270.147 120.358 271.598 120.358C273.113 120.358 274.499 120.656 275.758 121.254L275.182 122.758C274.691 122.523 274.137 122.342 273.518 122.214C272.921 122.064 272.334 121.99 271.758 121.99C270.798 121.99 270.009 122.203 269.39 122.63C268.771 123.035 268.462 123.686 268.462 124.582C268.462 125.051 268.547 125.414 268.718 125.67C268.889 125.926 269.123 126.128 269.422 126.278C269.721 126.427 270.169 126.598 270.766 126.79L273.07 127.526C274.329 127.931 275.214 128.432 275.726 129.03C276.259 129.627 276.526 130.534 276.526 131.75C276.526 133.264 276.046 134.374 275.086 135.078C274.147 135.782 272.942 136.134 271.47 136.134Z" fill="black"/>
<rect x="226.085" y="220.206" width="33.5851" height="96.7939" fill="#C3B9E9"/>
<rect x="31.9468" y="216.98" width="32.766" height="100.02" fill="#E5E6BB"/>
<rect x="64.7128" y="205.687" width="39.3191" height="111.313" fill="#D3A3E3"/>
<rect x="104.032" y="178.262" width="28.6702" height="138.738" fill="#BAE0BB"/>
<rect x="132.702" y="216.173" width="31.9468" height="100.827" fill="#FA8B09" fill-opacity="0.5"/>
<rect x="164.649" y="189.555" width="24.5745" height="127.445" fill="#EABDBD"/>
<rect x="189.223" y="175.036" width="36.8617" height="141.964" fill="#EC94C9"/>
<ellipse cx="253.527" cy="180.279" rx="2.04787" ry="2.01654" fill="#635D5D"/>
<ellipse cx="126.559" cy="134.302" rx="2.04787" ry="2.01654" fill="#635D5D"/>
<ellipse cx="333.803" cy="152.047" rx="2.04787" ry="2.01654" fill="#635D5D"/>
<ellipse cx="178.984" cy="160.113" rx="2.04787" ry="2.01654" fill="#635D5D"/>
<ellipse cx="32.3564" cy="204.477" rx="2.04787" ry="2.01654" fill="#635D5D"/>
<ellipse cx="404.25" cy="196.411" rx="2.04787" ry="2.01654" fill="#635D5D"/>
<ellipse cx="391.144" cy="72.9987" rx="2.04787" ry="2.01654" fill="#635D5D"/>
<ellipse cx="20.8883" cy="138.335" rx="2.04787" ry="2.01654" fill="#635D5D"/>
<ellipse cx="55.2925" cy="106.07" rx="2.04787" ry="2.01654" fill="#635D5D"/>
<ellipse cx="424.729" cy="295.625" rx="2.04787" ry="2.01654" fill="#635D5D"/>
<ellipse cx="378.037" cy="138.335" rx="2.04787" ry="2.01654" fill="#635D5D"/>
<ellipse cx="287.931" cy="68.9656" rx="2.04787" ry="2.01654" fill="#635D5D"/>
<ellipse cx="313.324" cy="214.156" rx="2.04787" ry="2.01654" fill="#635D5D"/>
<ellipse cx="178.984" cy="64.9326" rx="2.04787" ry="2.01654" fill="#635D5D"/>
<ellipse cx="97.8883" cy="152.047" rx="2.04787" ry="2.01654" fill="#635D5D"/>
<path d="M259.758 316.659C262.242 315.577 273.398 273.346 286.87 270.097C300.343 266.848 325.372 286.659 338.446 272.964C351.52 259.268 349.432 218.112 349.432 218.112" stroke="#C97474"/>
<path d="M260.019 315.645C262.283 314.132 266.192 270.535 278.915 264.911C291.639 259.288 319.608 274.295 330.188 258.455C340.769 242.616 331.814 202.461 331.814 202.461" stroke="#74C97D"/>
<path d="M259.839 317C262.509 316.621 283.834 278.82 297.659 279.294C311.484 279.769 330.712 305.617 346.762 295.894C362.811 286.172 371.074 245.858 371.074 245.858" stroke="#897F7F"/>
<path d="M259.644 316.814C262.271 316.195 280.336 276.613 294.148 275.837C307.96 275.061 329.289 299.075 344.46 287.94C359.631 276.804 364.471 235.898 364.471 235.898" stroke="#7D83BA"/>
<defs>
<linearGradient id="paint0_linear_2_6" x1="234.277" y1="14.5191" x2="234.277" y2="297.641" gradientUnits="userSpaceOnUse">
<stop offset="0.625" stop-color="#EFDFBF"/>
<stop offset="1" stop-color="#BFE6EF" stop-opacity="0"/>
</linearGradient>
</defs>
</svg>
